<svg xmlns="http://www.w3.org/2000/svg" xmlns:xlink="http://www.w3.org/1999/xlink" style="display:none">

  <symbol id="icono-arrow" viewBox="0 0 11 13" fill="none">
      <path d="M0.220623 6.71984C0.2903 6.64992 0.373094 6.59444 0.464258 6.55659C0.555421 6.51873 0.653162 6.49925 0.751872 6.49925C0.850583 6.49925 0.948322 6.51873 1.03949 6.55659C1.13065 6.59444 1.21345 6.64992 1.28312 6.71984L4.50125 9.93796L4.50125 0.750464C4.50125 0.551551 4.58026 0.360787 4.72092 0.220134C4.86157 0.0794816 5.05233 0.000463962 5.25125 0.000463945C5.45016 0.000463927 5.64092 0.0794815 5.78158 0.220134C5.92223 0.360787 6.00125 0.551551 6.00125 0.750464L6.00125 9.93796L9.22062 6.71984C9.36152 6.57894 9.55261 6.49979 9.75187 6.49979C9.95113 6.49979 10.1422 6.57894 10.2831 6.71984C10.424 6.86073 10.5032 7.05183 10.5032 7.25109C10.5032 7.45035 10.424 7.64144 10.2831 7.78234L5.78312 12.2823C5.71345 12.3523 5.63065 12.4077 5.53949 12.4456C5.44832 12.4834 5.35058 12.5029 5.25187 12.5029C5.15316 12.5029 5.05542 12.4834 4.96426 12.4456C4.8731 12.4077 4.7903 12.3523 4.72062 12.2823L0.220623 7.78234C0.150703 7.71266 0.0952249 7.62987 0.0573707 7.5387C0.0195165 7.44754 3.00671e-05 7.3498 3.00584e-05 7.25109C3.00498e-05 7.15238 0.0195165 7.05464 0.0573707 6.96348C0.0952248 6.87231 0.150703 6.78952 0.220623 6.71984Z" fill="currentColor"/>
  </symbol>

  <symbol id="icono-play" viewBox="0 0 28 28" fill="none">
      <path d="M4.27403 24.07C2.93689 22.7786 1.87034 21.2338 1.13662 19.5257C0.402889 17.8176 0.016682 15.9806 0.000528595 14.1217C-0.0156248 12.2627 0.338599 10.4192 1.04253 8.69868C1.74646 6.97813 2.78601 5.415 4.1005 4.1005C5.415 2.78601 6.97813 1.74646 8.69868 1.04253C10.4192 0.338599 12.2627 -0.0156248 14.1217 0.000528595C15.9806 0.016682 17.8176 0.402889 19.5257 1.13662C21.2338 1.87034 22.7786 2.93689 24.07 4.27403C26.6202 6.91447 28.0314 10.4509 27.9995 14.1217C27.9676 17.7924 26.4952 21.3038 23.8995 23.8995C21.3038 26.4952 17.7924 27.9676 14.1217 27.9995C10.4509 28.0314 6.91447 26.6202 4.27403 24.07ZM22.096 22.096C24.1976 19.9945 25.3783 17.1441 25.3783 14.172C25.3783 11.2 24.1976 8.34961 22.096 6.24803C19.9945 4.14646 17.1441 2.96581 14.172 2.96581C11.2 2.96581 8.34961 4.14646 6.24803 6.24803C4.14646 8.34961 2.96581 11.2 2.96581 14.172C2.96581 17.1441 4.14646 19.9945 6.24803 22.096C8.34961 24.1976 11.2 25.3783 14.172 25.3783C17.1441 25.3783 19.9945 24.1976 22.096 22.096ZM9.97203 8.57203L21.172 14.172L9.97203 19.772V8.57203Z" fill="currentColor"/>
  </symbol>

  <symbol id="icono-mesa-s" viewBox="0 0 22 22" fill="none">
    <path d="M2.11111 13.2222H19.8889C20.5111 13.2222 21 13.7111 21 14.3333V20.9999H1V14.3333C1 13.7111 1.51111 13.2222 2.11111 13.2222Z" stroke="white" stroke-width="2" stroke-linecap="round" stroke-linejoin="round"/>
    <path d="M11 6.9111C12.6323 6.9111 13.9555 5.58785 13.9555 3.95555C13.9555 2.32324 12.6323 1 11 1C9.36768 1 8.04443 2.32324 8.04443 3.95555C8.04443 5.58785 9.36768 6.9111 11 6.9111Z" stroke="white" stroke-width="2" stroke-miterlimit="10" stroke-linecap="round"/>
    <path d="M15.4446 11.289C15.4446 9.11127 13.6668 7.3335 11.489 7.3335H10.5112C8.33344 7.3335 6.55566 9.11127 6.55566 11.289" stroke="white" stroke-width="2" stroke-miterlimit="10" stroke-linecap="round"/>
  </symbol>

  <symbol id="icono-kit" viewBox="0 0 23 17" fill="none">
    <path d="M7 8.16667C9.3275 8.16667 11.0833 6.41083 11.0833 4.08333C11.0833 1.75583 9.3275 0 7 0C4.6725 0 2.91667 1.75583 2.91667 4.08333C2.91667 6.41083 4.6725 8.16667 7 8.16667ZM8.16667 9.27267H5.83333C2.61683 9.27267 0 11.8895 0 15.106V16.2727H14V15.106C14 11.8895 11.3832 9.27267 8.16667 9.27267ZM21.343 3.78L16.3263 8.78733L14.819 7.28L13.1693 8.92967L16.3263 12.0843L22.9903 5.432L21.343 3.78Z" fill="white"/>
  </symbol>

  <symbol id="icono-copy" viewBox="0 0 14 16" fill="none">
    <path d="M13.5607 2.06066L11.9393 0.439344C11.658 0.158039 11.2765 2.08024e-06 10.8787 0L5.5 0C4.67156 0 4 0.671562 4 1.5V3H1.5C0.671562 3 0 3.67156 0 4.5V14.5C0 15.3284 0.671562 16 1.5 16H8.5C9.32844 16 10 15.3284 10 14.5V13H12.5C13.3284 13 14 12.3284 14 11.5V3.12131C14 2.72349 13.842 2.34196 13.5607 2.06066ZM8.3125 14.5H1.6875C1.63777 14.5 1.59008 14.4802 1.55492 14.4451C1.51975 14.4099 1.5 14.3622 1.5 14.3125V4.6875C1.5 4.63777 1.51975 4.59008 1.55492 4.55492C1.59008 4.51975 1.63777 4.5 1.6875 4.5H4V11.5C4 12.3284 4.67156 13 5.5 13H8.5V14.3125C8.5 14.3622 8.48025 14.4099 8.44508 14.4451C8.40992 14.4802 8.36223 14.5 8.3125 14.5ZM12.3125 11.5H5.6875C5.63777 11.5 5.59008 11.4802 5.55492 11.4451C5.51975 11.4099 5.5 11.3622 5.5 11.3125V1.6875C5.5 1.63777 5.51975 1.59008 5.55492 1.55492C5.59008 1.51975 5.63777 1.5 5.6875 1.5H9V4.25C9 4.66422 9.33578 5 9.75 5H12.5V11.3125C12.5 11.3622 12.4802 11.4099 12.4451 11.4451C12.4099 11.4802 12.3622 11.5 12.3125 11.5ZM12.5 3.5H10.5V1.5H10.801C10.8507 1.5 10.8984 1.51975 10.9336 1.55491L12.4451 3.06641C12.4625 3.08382 12.4763 3.10449 12.4857 3.12724C12.4952 3.14999 12.5 3.17438 12.5 3.199V3.5Z" fill="#9DA73D"/>
  </symbol>
  
  <symbol id="icono-guiar" viewBox="0 0 18 22" fill="none">
    <path d="M1.629 1.629L2.15903 2.15963L2.15963 2.15903L1.629 1.629ZM15.871 1.629L15.3404 2.15903L15.341 2.15963L15.871 1.629ZM15.871 19.871L15.341 19.3404L15.3404 19.341L15.871 19.871ZM1.629 19.871L2.15963 19.341L2.15903 19.3404L1.629 19.871ZM2.871 14.852L2.67752 14.1274L2.67675 14.1276L2.871 14.852ZM4.75 5C4.33579 5 4 5.33579 4 5.75C4 6.16421 4.33579 6.5 4.75 6.5V5.75V5ZM12.75 6.5C13.1642 6.5 13.5 6.16421 13.5 5.75C13.5 5.33579 13.1642 5 12.75 5V5.75V6.5ZM4.75 8.5C4.33579 8.5 4 8.83579 4 9.25C4 9.66421 4.33579 10 4.75 10V9.25V8.5ZM9.75 10C10.1642 10 10.5 9.66421 10.5 9.25C10.5 8.83579 10.1642 8.5 9.75 8.5V9.25V10ZM0.75 6.75H1.5C1.5 5.31479 1.50159 4.31361 1.60318 3.55821C1.70188 2.82434 1.88239 2.43596 2.15903 2.15963L1.629 1.629L1.09897 1.09837C0.496613 1.70004 0.237621 2.45816 0.116567 3.35829C-0.00159359 4.23689 0 5.35721 0 6.75H0.75ZM1.629 1.629L2.15963 2.15903C2.43596 1.88239 2.82434 1.70188 3.55821 1.60318C4.31361 1.50159 5.31479 1.5 6.75 1.5V0.75V0C5.35721 0 4.23689 -0.00159365 3.35829 0.116567C2.45816 0.23762 1.70004 0.496613 1.09837 1.09897L1.629 1.629ZM6.75 0.75V1.5H10.75V0.75V0H6.75V0.75ZM10.75 0.75V1.5C12.1852 1.5 13.1864 1.50159 13.9418 1.60318C14.6757 1.70188 15.064 1.88239 15.3404 2.15903L15.871 1.629L16.4016 1.09897C15.8 0.496613 15.0418 0.23762 14.1417 0.116567C13.2631 -0.00159365 12.1428 0 10.75 0V0.75ZM15.871 1.629L15.341 2.15963C15.6176 2.43596 15.7981 2.82434 15.8968 3.55821C15.9984 4.31361 16 5.31479 16 6.75H16.75H17.5C17.5 5.35721 17.5016 4.23689 17.3834 3.35829C17.2624 2.45816 17.0034 1.70004 16.401 1.09837L15.871 1.629ZM16.75 6.75H16V14.75H16.75H17.5V6.75H16.75ZM16.75 14.75H16C16 16.1852 15.9984 17.1864 15.8968 17.9418C15.7981 18.6757 15.6176 19.064 15.341 19.3404L15.871 19.871L16.401 20.4016C17.0034 19.8 17.2624 19.0418 17.3834 18.1417C17.5016 17.2631 17.5 16.1428 17.5 14.75H16.75ZM15.871 19.871L15.3404 19.341C15.064 19.6176 14.6757 19.7981 13.9418 19.8968C13.1864 19.9984 12.1852 20 10.75 20V20.75V21.5C12.1428 21.5 13.2631 21.5016 14.1417 21.3834C15.0418 21.2624 15.8 21.0034 16.4016 20.401L15.871 19.871ZM10.75 20.75V20H6.75V20.75V21.5H10.75V20.75ZM6.75 20.75V20C5.31479 20 4.31361 19.9984 3.55821 19.8968C2.82434 19.7981 2.43596 19.6176 2.15963 19.341L1.629 19.871L1.09837 20.401C1.70004 21.0034 2.45816 21.2624 3.35829 21.3834C4.23689 21.5016 5.35721 21.5 6.75 21.5V20.75ZM1.629 19.871L2.15903 19.3404C1.88239 19.064 1.70188 18.6757 1.60318 17.9418C1.50159 17.1864 1.5 16.1852 1.5 14.75H0.75H0C0 16.1428 -0.00159359 17.2631 0.116567 18.1417C0.237621 19.0418 0.496613 19.8 1.09897 20.4016L1.629 19.871ZM0.75 14.75H1.5V6.75H0.75H0V14.75H0.75ZM16.648 14.75V14H4.648V14.75V15.5H16.648V14.75ZM4.648 14.75V14C3.76605 14 3.17855 13.9936 2.67752 14.1274L2.871 14.852L3.06448 15.5766C3.32745 15.5064 3.66995 15.5 4.648 15.5V14.75ZM2.871 14.852L2.67675 14.1276C2.04089 14.2981 1.46112 14.633 0.995723 15.0986L1.52618 15.6288L2.05663 16.159C2.33587 15.8796 2.68373 15.6787 3.06525 15.5764L2.871 14.852ZM1.52618 15.6288L0.995723 15.0986C0.530326 15.5642 0.195706 16.1442 0.0255004 16.7801L0.75 16.974L1.4745 17.1679C1.57662 16.7863 1.7774 16.4384 2.05663 16.159L1.52618 15.6288ZM4.75 5.75V6.5H12.75V5.75V5H4.75V5.75ZM4.75 9.25V10H9.75V9.25V8.5H4.75V9.25Z" fill="#9DA73D"/>
  </symbol>

  <symbol id="icono-proceso" viewBox="0 0 16 12" fill="none">
      <path d="M0 1C0 0.734784 0.105357 0.48043 0.292893 0.292893C0.48043 0.105357 0.734784 0 1 0H2C2.26522 0 2.51957 0.105357 2.70711 0.292893C2.89464 0.48043 3 0.734784 3 1C3 1.26522 2.89464 1.51957 2.70711 1.70711C2.51957 1.89464 2.26522 2 2 2H1C0.734784 2 0.48043 1.89464 0.292893 1.70711C0.105357 1.51957 0 1.26522 0 1ZM5 1C5 0.734784 5.10536 0.48043 5.29289 0.292893C5.48043 0.105357 5.73478 0 6 0H15C15.2652 0 15.5196 0.105357 15.7071 0.292893C15.8946 0.48043 16 0.734784 16 1C16 1.26522 15.8946 1.51957 15.7071 1.70711C15.5196 1.89464 15.2652 2 15 2H6C5.73478 2 5.48043 1.89464 5.29289 1.70711C5.10536 1.51957 5 1.26522 5 1ZM0 6C0 5.73478 0.105357 5.48043 0.292893 5.29289C0.48043 5.10536 0.734784 5 1 5H2C2.26522 5 2.51957 5.10536 2.70711 5.29289C2.89464 5.48043 3 5.73478 3 6C3 6.26522 2.89464 6.51957 2.70711 6.70711C2.51957 6.89464 2.26522 7 2 7H1C0.734784 7 0.48043 6.89464 0.292893 6.70711C0.105357 6.51957 0 6.26522 0 6ZM5 6C5 5.73478 5.10536 5.48043 5.29289 5.29289C5.48043 5.10536 5.73478 5 6 5H15C15.2652 5 15.5196 5.10536 15.7071 5.29289C15.8946 5.48043 16 5.73478 16 6C16 6.26522 15.8946 6.51957 15.7071 6.70711C15.5196 6.89464 15.2652 7 15 7H6C5.73478 7 5.48043 6.89464 5.29289 6.70711C5.10536 6.51957 5 6.26522 5 6ZM0 11C0 10.7348 0.105357 10.4804 0.292893 10.2929C0.48043 10.1054 0.734784 10 1 10H2C2.26522 10 2.51957 10.1054 2.70711 10.2929C2.89464 10.4804 3 10.7348 3 11C3 11.2652 2.89464 11.5196 2.70711 11.7071C2.51957 11.8946 2.26522 12 2 12H1C0.734784 12 0.48043 11.8946 0.292893 11.7071C0.105357 11.5196 0 11.2652 0 11ZM5 11C5 10.7348 5.10536 10.4804 5.29289 10.2929C5.48043 10.1054 5.73478 10 6 10H15C15.2652 10 15.5196 10.1054 15.7071 10.2929C15.8946 10.4804 16 10.7348 16 11C16 11.2652 15.8946 11.5196 15.7071 11.7071C15.5196 11.8946 15.2652 12 15 12H6C5.73478 12 5.48043 11.8946 5.29289 11.7071C5.10536 11.5196 5 11.2652 5 11Z" fill="#9DA73D"/>
  </symbol>
  
</svg>