<svg xmlns="http://www.w3.org/2000/svg" xmlns:xlink="http://www.w3.org/1999/xlink" style="display:none">

<symbol id="icono-arrow" viewBox="0 0 11 13" fill="none">
    <path d="M0.220623 6.71984C0.2903 6.64992 0.373094 6.59444 0.464258 6.55659C0.555421 6.51873 0.653162 6.49925 0.751872 6.49925C0.850583 6.49925 0.948322 6.51873 1.03949 6.55659C1.13065 6.59444 1.21345 6.64992 1.28312 6.71984L4.50125 9.93796L4.50125 0.750464C4.50125 0.551551 4.58026 0.360787 4.72092 0.220134C4.86157 0.0794816 5.05233 0.000463962 5.25125 0.000463945C5.45016 0.000463927 5.64092 0.0794815 5.78158 0.220134C5.92223 0.360787 6.00125 0.551551 6.00125 0.750464L6.00125 9.93796L9.22062 6.71984C9.36152 6.57894 9.55261 6.49979 9.75187 6.49979C9.95113 6.49979 10.1422 6.57894 10.2831 6.71984C10.424 6.86073 10.5032 7.05183 10.5032 7.25109C10.5032 7.45035 10.424 7.64144 10.2831 7.78234L5.78312 12.2823C5.71345 12.3523 5.63065 12.4077 5.53949 12.4456C5.44832 12.4834 5.35058 12.5029 5.25187 12.5029C5.15316 12.5029 5.05542 12.4834 4.96426 12.4456C4.8731 12.4077 4.7903 12.3523 4.72062 12.2823L0.220623 7.78234C0.150703 7.71266 0.0952249 7.62987 0.0573707 7.5387C0.0195165 7.44754 3.00671e-05 7.3498 3.00584e-05 7.25109C3.00498e-05 7.15238 0.0195165 7.05464 0.0573707 6.96348C0.0952248 6.87231 0.150703 6.78952 0.220623 6.71984Z" fill="currentColor"/>
</symbol>

  <symbol id="icono-play" viewBox="0 0 28 28" fill="none">
      <path d="M4.27403 24.07C2.93689 22.7786 1.87034 21.2338 1.13662 19.5257C0.402889 17.8176 0.016682 15.9806 0.000528595 14.1217C-0.0156248 12.2627 0.338599 10.4192 1.04253 8.69868C1.74646 6.97813 2.78601 5.415 4.1005 4.1005C5.415 2.78601 6.97813 1.74646 8.69868 1.04253C10.4192 0.338599 12.2627 -0.0156248 14.1217 0.000528595C15.9806 0.016682 17.8176 0.402889 19.5257 1.13662C21.2338 1.87034 22.7786 2.93689 24.07 4.27403C26.6202 6.91447 28.0314 10.4509 27.9995 14.1217C27.9676 17.7924 26.4952 21.3038 23.8995 23.8995C21.3038 26.4952 17.7924 27.9676 14.1217 27.9995C10.4509 28.0314 6.91447 26.6202 4.27403 24.07ZM22.096 22.096C24.1976 19.9945 25.3783 17.1441 25.3783 14.172C25.3783 11.2 24.1976 8.34961 22.096 6.24803C19.9945 4.14646 17.1441 2.96581 14.172 2.96581C11.2 2.96581 8.34961 4.14646 6.24803 6.24803C4.14646 8.34961 2.96581 11.2 2.96581 14.172C2.96581 17.1441 4.14646 19.9945 6.24803 22.096C8.34961 24.1976 11.2 25.3783 14.172 25.3783C17.1441 25.3783 19.9945 24.1976 22.096 22.096ZM9.97203 8.57203L21.172 14.172L9.97203 19.772V8.57203Z" fill="currentColor"/>
  </symbol>

  <simbol id="icono-mesa-s" viewBox="0 0 22 22" fill="none">
    <path d="M2.11111 13.2222H19.8889C20.5111 13.2222 21 13.7111 21 14.3333V20.9999H1V14.3333C1 13.7111 1.51111 13.2222 2.11111 13.2222Z" stroke="white" stroke-width="2" stroke-linecap="round" stroke-linejoin="round"/>
    <path d="M11 6.9111C12.6323 6.9111 13.9555 5.58785 13.9555 3.95555C13.9555 2.32324 12.6323 1 11 1C9.36768 1 8.04443 2.32324 8.04443 3.95555C8.04443 5.58785 9.36768 6.9111 11 6.9111Z" stroke="white" stroke-width="2" stroke-miterlimit="10" stroke-linecap="round"/>
    <path d="M15.4446 11.289C15.4446 9.11127 13.6668 7.3335 11.489 7.3335H10.5112C8.33344 7.3335 6.55566 9.11127 6.55566 11.289" stroke="white" stroke-width="2" stroke-miterlimit="10" stroke-linecap="round"/>
  </simbol>

  <simbol id="icono-kit">
    <path d="M7 8.16667C9.3275 8.16667 11.0833 6.41083 11.0833 4.08333C11.0833 1.75583 9.3275 0 7 0C4.6725 0 2.91667 1.75583 2.91667 4.08333C2.91667 6.41083 4.6725 8.16667 7 8.16667ZM8.16667 9.27267H5.83333C2.61683 9.27267 0 11.8895 0 15.106V16.2727H14V15.106C14 11.8895 11.3832 9.27267 8.16667 9.27267ZM21.343 3.78L16.3263 8.78733L14.819 7.28L13.1693 8.92967L16.3263 12.0843L22.9903 5.432L21.343 3.78Z" fill="white"/>
  </simbol>

  <simbol id="icono-guia" viewBox="0 0 18 22" fill="none">
    <path d="M0.75 6.75C0.75 3.922 0.75 2.507 1.629 1.629C2.507 0.75 3.922 0.75 6.75 0.75H10.75C13.578 0.75 14.993 0.75 15.871 1.629C16.75 2.507 16.75 3.922 16.75 6.75V14.75C16.75 17.578 16.75 18.993 15.871 19.871C14.993 20.75 13.578 20.75 10.75 20.75H6.75C3.922 20.75 2.507 20.75 1.629 19.871C0.75 18.993 0.75 17.578 0.75 14.75V6.75Z" stroke="#9DA73D" stroke-width="1.5"/>
    <path d="M16.648 14.75H4.648C3.718 14.75 3.253 14.75 2.871 14.852C2.36231 14.9884 1.89849 15.2563 1.52618 15.6288C1.15386 16.0013 0.886165 16.4652 0.75 16.974" stroke="#9DA73D" stroke-width="1.5"/>
    <path d="M4.75 5.75H12.75M4.75 9.25H9.75" stroke="#9DA73D" stroke-width="1.5" stroke-linecap="round"/>
  </simbol>

  <symbol id="icono-proceso" viewBox="0 0 16 12" fill="none">
      <path d="M0 1C0 0.734784 0.105357 0.48043 0.292893 0.292893C0.48043 0.105357 0.734784 0 1 0H2C2.26522 0 2.51957 0.105357 2.70711 0.292893C2.89464 0.48043 3 0.734784 3 1C3 1.26522 2.89464 1.51957 2.70711 1.70711C2.51957 1.89464 2.26522 2 2 2H1C0.734784 2 0.48043 1.89464 0.292893 1.70711C0.105357 1.51957 0 1.26522 0 1ZM5 1C5 0.734784 5.10536 0.48043 5.29289 0.292893C5.48043 0.105357 5.73478 0 6 0H15C15.2652 0 15.5196 0.105357 15.7071 0.292893C15.8946 0.48043 16 0.734784 16 1C16 1.26522 15.8946 1.51957 15.7071 1.70711C15.5196 1.89464 15.2652 2 15 2H6C5.73478 2 5.48043 1.89464 5.29289 1.70711C5.10536 1.51957 5 1.26522 5 1ZM0 6C0 5.73478 0.105357 5.48043 0.292893 5.29289C0.48043 5.10536 0.734784 5 1 5H2C2.26522 5 2.51957 5.10536 2.70711 5.29289C2.89464 5.48043 3 5.73478 3 6C3 6.26522 2.89464 6.51957 2.70711 6.70711C2.51957 6.89464 2.26522 7 2 7H1C0.734784 7 0.48043 6.89464 0.292893 6.70711C0.105357 6.51957 0 6.26522 0 6ZM5 6C5 5.73478 5.10536 5.48043 5.29289 5.29289C5.48043 5.10536 5.73478 5 6 5H15C15.2652 5 15.5196 5.10536 15.7071 5.29289C15.8946 5.48043 16 5.73478 16 6C16 6.26522 15.8946 6.51957 15.7071 6.70711C15.5196 6.89464 15.2652 7 15 7H6C5.73478 7 5.48043 6.89464 5.29289 6.70711C5.10536 6.51957 5 6.26522 5 6ZM0 11C0 10.7348 0.105357 10.4804 0.292893 10.2929C0.48043 10.1054 0.734784 10 1 10H2C2.26522 10 2.51957 10.1054 2.70711 10.2929C2.89464 10.4804 3 10.7348 3 11C3 11.2652 2.89464 11.5196 2.70711 11.7071C2.51957 11.8946 2.26522 12 2 12H1C0.734784 12 0.48043 11.8946 0.292893 11.7071C0.105357 11.5196 0 11.2652 0 11ZM5 11C5 10.7348 5.10536 10.4804 5.29289 10.2929C5.48043 10.1054 5.73478 10 6 10H15C15.2652 10 15.5196 10.1054 15.7071 10.2929C15.8946 10.4804 16 10.7348 16 11C16 11.2652 15.8946 11.5196 15.7071 11.7071C15.5196 11.8946 15.2652 12 15 12H6C5.73478 12 5.48043 11.8946 5.29289 11.7071C5.10536 11.5196 5 11.2652 5 11Z" fill="#9DA73D"/>
  </symbol>
  
</svg>